<?xml version="1.0" encoding="utf-8"?>
<!-- Generator: Adobe Illustrator 16.0.0, SVG Export Plug-In . SVG Version: 6.00 Build 0)  -->
<!DOCTYPE svg PUBLIC "-//W3C//DTD SVG 1.1//EN" "http://www.w3.org/Graphics/SVG/1.1/DTD/svg11.dtd">
<svg version="1.1" xmlns="http://www.w3.org/2000/svg" xmlns:xlink="http://www.w3.org/1999/xlink" x="0px" y="0px" width="16px"
	 height="16px" viewBox="0 0 16 16" enable-background="new 0 0 16 16" xml:space="preserve">
<g id="Layer_2">
	<line fill="none" x1="15.307" y1="1.617" x2="15.038" y2="2.229"/>
	<path fill="#FFFFFF" d="M14.521,7.062"/>
	<path fill="none" stroke="#CE88FF" stroke-miterlimit="10" d="M9.6,61.729c-30.466,0-55.252-24.372-55.252-54.329
		c0-29.957,24.786-54.329,55.252-54.329c30.467,0,55.253,24.372,55.253,54.329C64.853,37.356,40.066,61.729,9.6,61.729z"/>
	<g>
		<path fill="#CE88FF" d="M16.016,3.939l-0.597,0.33c-1.45-2.626-5.569-3.715-8.884-1.886c-3.313,1.83-4.585,5.896-3.136,8.522
			l-0.597,0.33C0.87,7.733,2.563,3.798,6.206,1.787C9.849-0.225,14.082,0.438,16.016,3.939z"/>
	</g>
	<g>
		<path fill="#A4CFFF" d="M15.41,4.274l-0.598,0.329c-1.449-2.626-4.974-3.278-7.953-1.633C3.88,4.616,2.555,7.945,4.005,10.571
			L3.409,10.9c-1.45-2.626-0.187-6.7,3.121-8.526C9.839,0.547,13.96,1.648,15.41,4.274z"/>
	</g>
	<g>
		<path fill="#A6FF8A" d="M14.804,4.609l-0.597,0.33c-1.45-2.626-4.377-2.84-7.023-1.379C4.539,5.02,3.161,7.61,4.611,10.236
			l-0.597,0.329c-1.45-2.626-0.134-5.961,2.84-7.604C9.829,1.32,13.354,1.982,14.804,4.609z"/>
	</g>
	<g>
		<path fill="#FFDFBA" d="M14.197,4.943l-0.597,0.33c-0.967-1.751-3.781-2.404-6.092-1.127C5.197,5.421,4.251,8.151,5.218,9.902
			l-0.597,0.329c-1.45-2.626-0.082-5.225,2.558-6.683C9.819,2.091,12.747,2.317,14.197,4.943z"/>
	</g>
	<g>
		<path fill="#FFFBA8" d="M13.592,5.278l-0.597,0.33c-0.967-1.751-3.185-1.966-5.162-0.874c-1.977,1.092-2.977,3.083-2.01,4.834
			L5.227,9.896C4.26,8.146,5.197,5.41,7.503,4.137C9.811,2.863,12.625,3.527,13.592,5.278z"/>
	</g>
	<g>
		<path fill="#FFA6A6" d="M12.986,5.612l-0.597,0.33c-0.483-0.875-2.589-1.528-4.232-0.621C6.514,6.228,5.946,8.357,6.429,9.232
			l-0.597,0.33c-0.966-1.751,0.023-3.75,1.996-4.838C9.801,3.635,12.02,3.861,12.986,5.612z"/>
	</g>
	<g>
		<path fill="#EFA7DE" d="M12.379,5.948l-0.597,0.329c-0.483-0.875-1.991-1.091-3.3-0.368c-1.309,0.723-1.93,2.114-1.447,2.989
			l-0.597,0.33C5.955,8.352,6.514,6.217,8.152,5.313C9.79,4.408,11.896,5.072,12.379,5.948z"/>
	</g>
</g>
<g id="Layer_1">
	<g>
		
			<ellipse transform="matrix(0.9637 0.2668 -0.2668 0.9637 3.388 -0.518)" fill="#ECF0F1" cx="3.6" cy="12.209" rx="3.133" ry="3.106"/>
		<path fill="#ECF0F1" d="M10.895,11.657c-0.457,1.654-2.182,2.62-3.85,2.159c-1.667-0.461-2.648-2.177-2.191-3.831
			c0.458-1.65,2.181-2.617,3.849-2.156C10.371,8.291,11.353,10.008,10.895,11.657z"/>
		
			<ellipse transform="matrix(0.9638 0.2667 -0.2667 0.9638 3.6151 -2.5175)" fill="#ECF0F1" cx="11.077" cy="12.052" rx="2.8" ry="2.776"/>
		
			<ellipse transform="matrix(0.9638 0.2667 -0.2667 0.9638 3.8779 -1.9946)" fill="#ECF0F1" cx="9.283" cy="13.281" rx="2.648" ry="2.627"/>
		
			<ellipse transform="matrix(0.9637 0.2668 -0.2668 0.9637 3.9211 -1.1041)" fill="#ECF0F1" cx="6.023" cy="13.877" rx="2.165" ry="2.145"/>
	</g>
	<path fill="#FFFFFF" d="M15.038,5.136"/>
</g>
</svg>
